<svg width="1024" height="1024" viewBox="0 0 1024 1024" fill="none" xmlns="http://www.w3.org/2000/svg">
<g clip-path="url(#clip0)">
<path d="M1009.85 437.392H917.731C913.839 416.165 908.296 395.41 901.337 375.48L981.422 329.253C988.145 325.361 990.504 316.635 986.611 309.913L925.28 203.66C921.388 196.939 912.66 194.58 905.937 198.472L826.088 244.581C812.17 228.307 797.073 213.213 780.915 199.179L827.267 118.989C831.16 112.267 828.801 103.54 822.078 99.6486L715.809 38.3264C709.086 34.4348 700.358 36.7933 696.466 43.5152L650.35 123.352C630.417 116.276 609.777 110.616 588.546 106.724V14.1513C588.546 6.36807 582.177 0 574.393 0H451.73C443.946 0 437.577 6.36807 437.577 14.1513V106.37C416.346 110.262 395.706 115.805 375.655 122.762L329.421 42.6897C325.529 35.9678 316.801 33.6093 310.078 37.5009L203.809 98.8231C197.086 102.715 194.728 111.441 198.62 118.163L244.736 198C228.46 211.915 213.245 227.01 199.327 243.166L119.125 196.939C112.402 193.047 103.674 195.406 99.7816 202.127L38.4501 308.38C34.5579 315.102 36.9168 323.828 43.6397 327.72L123.371 373.712C116.294 393.641 110.633 414.396 106.622 435.623H14.1534C6.36904 435.623 0 441.991 0 449.775V572.419C0 580.202 6.36904 586.57 14.1534 586.57H106.151C110.043 607.797 115.586 628.552 122.545 648.6L42.5782 694.71C35.8553 698.601 33.4964 707.328 37.3886 714.05L98.7201 820.302C102.612 827.024 111.34 829.383 118.063 825.491L197.794 779.499C211.712 795.773 226.809 810.986 243.085 824.901L196.968 904.856C193.076 911.578 195.435 920.305 202.158 924.196L308.427 985.518C315.15 989.41 323.877 987.051 327.77 980.33L370.594 924.196C335.897 871.076 315.446 835.445 299.435 740.363C270.421 711.353 237.07 672.539 221.147 635.039C204.753 596.123 196.379 554.848 196.379 512.158C196.379 469.469 204.753 428.194 221.147 389.278C237.07 351.659 259.833 317.932 288.848 288.922C317.862 259.912 351.712 237.152 389.219 221.232C428.141 204.84 469.422 196.467 512.118 196.467C554.814 196.467 596.095 204.84 635.017 221.232C672.641 237.152 706.374 259.912 735.388 288.922C764.403 317.932 787.166 351.777 803.089 389.278C819.483 428.194 827.857 469.469 827.857 512.158C827.857 554.848 819.483 596.123 803.089 635.039C788.086 673.668 779.042 689.565 762.478 714.05L780.332 840.85C796.608 826.935 811.109 797.188 825.027 780.914L904.993 827.142C911.716 831.034 920.444 828.675 924.336 821.953L985.668 715.701C989.56 708.979 987.201 700.252 980.478 696.361L900.865 650.369C907.942 630.439 913.603 609.684 917.496 588.457H1009.85C1017.63 588.457 1024 582.089 1024 574.306V451.543C1024 443.76 1017.63 437.392 1009.85 437.392Z" fill="#1D50A2"/>
<path fill-rule="evenodd" clip-rule="evenodd" d="M633.368 1024C639.499 1024 640.753 1022.21 644.923 1020.78C637.995 1011.59 643.993 1000.79 653.1 997.374V923.941C640.578 916.541 644.354 897.557 656.877 889.674H752.61C753.812 881.41 754.754 876.839 754.737 868.11L745.65 768.157L729.294 680.925L702.87 526.782V450.657C702.87 378.175 700.906 364.339 650.559 312.298C603.426 263.649 541.296 234.281 474.256 228.658C470.507 228.122 459.259 227.854 458.545 227.944C439.888 228.836 422.303 235.799 408.198 247.76C353.477 250.795 306.969 287.215 291.258 340.238C289.562 345.861 290.99 351.931 294.918 356.216C298.935 360.501 304.827 362.464 310.54 361.304C319.913 359.43 329.554 358.448 339.284 358.448C362.493 358.448 385.614 364.071 406.324 374.604C406.859 374.872 421.678 384.334 423.731 386.387C423.731 386.387 423.82 386.387 423.82 386.476C423.82 386.522 423.82 386.544 423.832 386.566C423.843 386.589 423.865 386.611 423.909 386.655C441.049 403.704 450.511 426.467 450.511 450.657C450.511 474.759 441.049 497.521 423.909 514.66C368.207 570.36 337.499 644.36 337.499 723.091C337.684 811.139 360.959 845.601 399.833 903.158C401.466 905.576 403.126 908.034 404.813 910.539C410.807 917.786 417.175 924.789 423.909 931.523C425.248 932.861 426.587 934.2 428.016 935.45C409.091 939.11 370.366 975.139 370.366 995.045C370.366 1017.72 413.197 1024 435.871 1024H633.368ZM319.491 336.383C318.343 310.92 373.12 265.141 394.928 272.136C428.168 290.032 408.84 344.053 408.84 344.053C399.73 338.058 344.575 334.256 336.503 336.383C328.432 338.509 320.962 338.855 319.491 336.383ZM500.398 298.961C500.398 308.097 492.991 315.504 483.854 315.504C474.717 315.504 467.311 308.097 467.311 298.961C467.311 289.824 474.717 282.418 483.854 282.418C492.991 282.418 500.398 289.824 500.398 298.961ZM383.926 788.268C363.628 722.788 364.206 664.034 420.572 576.775C428.967 566.199 435.839 556.625 442.082 547.926C457.794 526.036 472.865 518.192 495.354 506.486C496.995 505.632 498.675 504.758 500.398 503.856C502.624 514.81 504.555 528.438 506.658 543.288C511.273 575.86 516.72 614.314 527.955 643.336C530.286 647.336 532.758 651.445 535.306 655.679C543.26 668.896 551.952 683.341 559.39 699.557C577.151 738.274 588.434 779.759 595.773 816.673C603.721 856.649 607.043 891.264 608.956 911.2L608.957 911.203L609.147 913.184C609.268 914.448 609.384 915.645 609.495 916.772C602.846 919.121 595.137 920.914 586.659 922.195C543.21 928.755 491.729 919.406 447.08 904.856C415.402 867.116 396.093 827.521 383.926 788.268Z" fill="#1D50A2"/>
<path d="M772.283 979.304H732.409V1005.75H735.322C739.813 1005.75 743 1006.61 744.881 1008.33C746.823 1009.99 747.794 1012.19 747.794 1014.92C747.794 1017.59 746.823 1019.79 744.881 1021.51C743 1023.17 739.813 1024 735.322 1024H712.472C707.981 1024 704.764 1023.17 702.822 1021.51C700.941 1019.79 700 1017.56 700 1014.83C700 1011.51 701.487 1008.92 704.461 1007.08C705.917 1006.13 709.013 1005.69 713.747 1005.75V934.341C710.469 934.045 707.981 933.065 706.282 931.403C704.643 929.741 703.824 927.664 703.824 925.171C703.824 922.44 704.764 920.244 706.646 918.582C708.588 916.861 711.804 916 716.296 916L735.322 916.089C739.813 916.089 743 916.92 744.881 918.582C746.823 920.244 747.794 922.44 747.794 925.171C747.794 927.901 746.823 930.127 744.881 931.848C743 933.51 739.813 934.341 735.322 934.341H732.409V961.052H772.283V934.341H769.37C764.879 934.341 761.662 933.51 759.72 931.848C757.839 930.127 756.898 927.901 756.898 925.171C756.898 922.44 757.839 920.244 759.72 918.582C761.662 916.861 764.879 916 769.37 916L788.397 916.089C792.888 916.089 796.074 916.92 797.956 918.582C799.898 920.244 800.869 922.44 800.869 925.171C800.869 927.664 800.019 929.741 798.32 931.403C796.681 933.065 794.223 934.045 790.946 934.341V1005.75C795.74 1005.75 798.836 1006.19 800.232 1007.08C803.205 1008.92 804.692 1011.54 804.692 1014.92C804.692 1017.59 803.721 1019.79 801.779 1021.51C799.898 1023.17 796.711 1024 792.22 1024H769.37C764.879 1024 761.662 1023.17 759.72 1021.51C757.839 1019.79 756.898 1017.56 756.898 1014.83C756.898 1012.16 757.869 1009.99 759.811 1008.33C761.753 1006.61 764.94 1005.75 769.37 1005.75H772.283V979.304Z" fill="#1D50A2"/>
<path d="M873.152 934.341V1005.75H891.997C896.488 1005.75 899.674 1006.61 901.555 1008.33C903.498 1009.99 904.469 1012.19 904.469 1014.92C904.469 1017.59 903.498 1019.79 901.555 1021.51C899.674 1023.17 896.488 1024 891.997 1024H835.645C831.154 1024 827.937 1023.17 825.995 1021.51C824.114 1019.79 823.173 1017.56 823.173 1014.83C823.173 1012.16 824.114 1009.99 825.995 1008.33C827.937 1006.61 831.154 1005.75 835.645 1005.75H854.489V934.341H835.645C831.154 934.341 827.937 933.51 825.995 931.848C824.114 930.127 823.173 927.901 823.173 925.171C823.173 922.44 824.114 920.244 825.995 918.582C827.937 916.861 831.154 916 835.645 916L891.997 916.089C896.488 916.089 899.674 916.92 901.555 918.582C903.498 920.244 904.469 922.44 904.469 925.171C904.469 927.901 903.498 930.127 901.555 931.848C899.674 933.51 896.488 934.341 891.997 934.341H873.152Z" fill="#1D50A2"/>
<path d="M984.854 934.341V1005.75H997.417C1001.91 1005.75 1005.09 1006.61 1006.98 1008.33C1008.92 1009.99 1009.89 1012.19 1009.89 1014.92C1009.89 1017.59 1008.92 1019.79 1006.98 1021.51C1005.09 1023.17 1001.91 1024 997.417 1024H953.72C949.228 1024 946.012 1023.17 944.07 1021.51C942.188 1019.79 941.248 1017.56 941.248 1014.83C941.248 1012.16 942.188 1009.99 944.07 1008.33C946.012 1006.61 949.228 1005.75 953.72 1005.75H966.192V934.341H945.981V951.614C945.981 956.007 945.101 959.153 943.341 961.052C941.642 962.892 939.396 963.812 936.605 963.812C933.874 963.812 931.628 962.892 929.868 961.052C928.169 959.153 927.319 956.007 927.319 951.614V916L1024 916.089V951.614C1024 956.007 1023.12 959.153 1021.36 961.052C1019.66 962.892 1017.42 963.812 1014.62 963.812C1011.89 963.812 1009.65 962.892 1007.89 961.052C1006.19 959.153 1005.34 956.007 1005.34 951.614V934.341H984.854Z" fill="#1D50A2"/>
</g>
<defs>
<clipPath id="clip0">
<rect width="1024" height="1024" fill="white"/>
</clipPath>
</defs>
</svg>
